<svg xmlns="http://www.w3.org/2000/svg" xmlns:xlink="http://www.w3.org/1999/xlink" width="28.969" height="26.06" viewBox="0 0 28.969 26.06">
  <metadata><?xpacket begin="﻿" id="W5M0MpCehiHzreSzNTczkc9d"?>
<x:xmpmeta xmlns:x="adobe:ns:meta/" x:xmptk="Adobe XMP Core 5.6-c138 79.159824, 2016/09/14-01:09:01        ">
   <rdf:RDF xmlns:rdf="http://www.w3.org/1999/02/22-rdf-syntax-ns#">
      <rdf:Description rdf:about=""/>
   </rdf:RDF>
</x:xmpmeta>
                                                                                                    
                                                                                                    
                                                                                                    
                                                                                                    
                                                                                                    
                                                                                                    
                                                                                                    
                                                                                                    
                                                                                                    
                                                                                                    
                                                                                                    
                                                                                                    
                                                                                                    
                                                                                                    
                                                                                                    
                                                                                                    
                                                                                                    
                                                                                                    
                                                                                                    
                                                                                                    
                           
<?xpacket end="w"?></metadata>
<defs>
    <style>
      .cls-1 {
        fill: #614160;
        fill-rule: evenodd;
        filter: url(#filter);
      }
    </style>
    <filter id="filter" x="151.031" y="2867.94" width="28.969" height="26.06" filterUnits="userSpaceOnUse">
      <feOffset result="offset" dx="0.5" dy="0.866" in="SourceAlpha"/>
      <feGaussianBlur result="blur"/>
      <feFlood result="flood" flood-color="#fff" flood-opacity="0.08"/>
      <feComposite result="composite" operator="in" in2="blur"/>
      <feBlend result="blend" in="SourceGraphic"/>
      <feFlood result="flood-2" flood-color="#0f466e"/>
      <feComposite result="composite-2" operator="in" in2="SourceGraphic"/>
      <feBlend result="blend-2" in2="blend"/>
      <feGaussianBlur result="blur-2" stdDeviation="1" in="SourceAlpha"/>
      <feFlood result="flood-3" flood-opacity="0.15"/>
      <feComposite result="composite-3" operator="out" in2="blur-2"/>
      <feOffset result="offset-2" dx="0.5" dy="0.866"/>
      <feComposite result="composite-4" operator="in" in2="SourceAlpha"/>
      <feBlend result="blend-3" in2="blend-2"/>
    </filter>
  </defs>
  <path id="Home_2" data-name="Home 2" class="cls-1" d="M153,2892v-14a1,1,0,0,1,1-1h22.031a0.9,0.9,0,0,1,.969.97v13.95a1.143,1.143,0,0,1-1.083,1.05H168l0.009-7.94a1.065,1.065,0,0,0-1.061-1.06H163.01a0.973,0.973,0,0,0-1,1.06L162,2892.99s-4.5.01-8,.01A0.943,0.943,0,0,1,153,2892Zm-1.969-16,14.563-8.05,3.347,2.06c1.715,0.02,4.905-.02,4.905-0.02s0.027,1.57.049,2.95c2.675,1.64,4.792,3.06,4.792,3.06H151.031Zm3.969,8h2v2h-2v-2Zm0,3h2v2h-2v-2Zm3-3h2v2h-2v-2Zm0,3h2v2h-2v-2Zm5-2h4v8h-4v-8Zm7-1h2v2h-2v-2Zm0,3h2v2h-2v-2Zm3-3h2v2h-2v-2Zm0,3h2v2h-2v-2Z" transform="translate(-151.031 -2867.94)"/>
</svg>
